<svg width="402" height="403" viewBox="0 0 402 403" fill="none" xmlns="http://www.w3.org/2000/svg">
<path d="M361.63 315.661C387.157 292.91 401.611 262.586 401.611 231.117C401.611 197.674 385.955 166.397 357.526 143.042C329.857 120.32 293.234 107.805 254.397 107.805C215.561 107.805 178.937 120.32 151.272 143.044C122.843 166.397 107.187 197.674 107.187 231.117C107.187 264.561 122.843 295.838 151.272 319.192C178.937 341.916 215.561 354.431 254.397 354.431C259.572 354.431 264.779 354.202 269.942 353.748L278.763 361.394C309.151 387.727 348.014 402.223 388.224 402.225H401.607V373.739L397.688 369.82C382.226 354.312 369.973 335.908 361.63 315.661ZM296.293 341.166L278.593 325.825L272.691 326.549C266.622 327.291 260.512 327.663 254.397 327.664C187.985 327.664 133.953 284.353 133.953 231.117C133.953 177.882 187.985 134.57 254.397 134.57C320.809 134.57 374.842 177.881 374.842 231.117C374.842 257.64 361.61 282.402 337.583 300.84L329.875 306.754L333.431 316.82C340.72 337.379 351.432 356.558 365.117 373.544C339.633 369.29 315.817 358.086 296.293 341.166Z" fill="#FFAC33"/>
<path d="M37.0827 252.904C49.61 237.046 59.4458 219.238 66.1968 200.19L69.7265 190.174L62.0256 184.264C39.3686 166.878 26.8909 143.543 26.8909 118.559C26.8909 68.3534 77.9201 27.5085 140.644 27.5085C186.788 27.5085 226.6 49.6151 244.425 81.2903C247.734 81.1297 251.058 81.0394 254.397 81.0394C261.104 81.0394 267.749 81.3647 274.332 82.0155C267.445 64.1704 255.482 47.8803 239.036 34.3721C212.636 12.6863 177.697 0.743029 140.644 0.743029C103.591 0.743029 68.6517 12.6863 42.2509 34.3721C15.0857 56.687 0.125488 86.5848 0.125488 118.559C0.125488 148.502 13.8026 177.355 37.9735 199.058C30.0856 218.041 18.5598 235.296 4.04579 249.853L0.125488 253.773V281.78H13.5082C38.2554 281.777 62.6623 276.014 84.7971 264.947C82.37 255.748 80.9478 246.312 80.5556 236.806C67.1209 244.68 52.4056 250.129 37.0827 252.904Z" fill="#FFAC33"/>
</svg>
