<svg width="21" height="21" viewBox="0 0 21 21" fill="none" xmlns="http://www.w3.org/2000/svg">
<path d="M10.1277 0.123404C11.4409 0.123404 12.7413 0.382061 13.9545 0.884608C15.1678 1.38716 16.2702 2.12375 17.1988 3.05234C18.1273 3.98092 18.8639 5.08331 19.3665 6.29657C19.869 7.50982 20.1277 8.81018 20.1277 10.1234C20.1277 12.7756 19.0741 15.3191 17.1988 17.1945C15.3234 19.0698 12.7799 20.1234 10.1277 20.1234C8.81447 20.1234 7.51411 19.8647 6.30085 19.3622C5.08759 18.8597 3.9852 18.1231 3.05662 17.1945C1.18125 15.3191 0.127686 12.7756 0.127686 10.1234C0.127686 7.47124 1.18125 4.9277 3.05662 3.05234C4.93198 1.17697 7.47552 0.123404 10.1277 0.123404ZM6.12769 5.8334V9.1734L13.2677 10.1234L6.12769 11.0734V14.4134L16.1277 10.1234L6.12769 5.8334Z" fill="#1B279B"/>
</svg>
