<svg width="60" height="65" viewBox="0 0 60 65" fill="none" xmlns="http://www.w3.org/2000/svg">
<path d="M49.5242 44.1569C47.9747 44.1572 46.446 44.5138 45.0564 45.1993C43.6668 45.8848 42.4535 46.8807 41.5103 48.1101L19.6917 35.7267C20.4249 33.5996 20.4249 31.2882 19.6917 29.161L41.5103 16.7777C43.0333 18.7536 45.2332 20.0965 47.6868 20.548C50.1404 20.9994 52.6742 20.5275 54.8007 19.223C56.9273 17.9186 58.4963 15.8738 59.2058 13.482C59.9153 11.0903 59.7152 8.52066 58.6441 6.26757C57.5729 4.01449 55.7063 2.23716 53.4035 1.27759C51.1006 0.318012 48.5243 0.24399 46.1702 1.06977C43.816 1.89554 41.8505 3.56277 40.6517 5.75063C39.4529 7.93849 39.1057 10.4924 39.6767 12.9209L17.4863 25.5154C16.0978 24.0382 14.2974 23.0123 12.3187 22.5709C10.34 22.1294 8.2743 22.2926 6.38951 23.0394C4.50472 23.7862 2.88781 25.0821 1.74849 26.759C0.609165 28.436 0 30.4165 0 32.4439C0 34.4712 0.609165 36.4518 1.74849 38.1287C2.88781 39.8057 4.50472 41.1016 6.38951 41.8484C8.2743 42.5952 10.34 42.7584 12.3187 42.3169C14.2974 41.8754 16.0978 40.8496 17.4863 39.3724L39.6768 51.967C39.1984 54.0114 39.3681 56.154 40.1624 58.0977C40.9566 60.0413 42.3361 61.6896 44.1093 62.8139C45.8826 63.9382 47.9618 64.4827 50.0585 64.3721C52.1552 64.2614 54.1656 63.501 55.8106 62.1963C57.4557 60.8915 58.6539 59.1072 59.2392 57.0908C59.8244 55.0743 59.7676 52.9258 59.0766 50.9431C58.3857 48.9603 57.0949 47.2418 55.3832 46.0258C53.6715 44.8098 51.6238 44.1567 49.5242 44.1569V44.1569ZM49.5242 4.75854C50.6825 4.75854 51.8148 5.10202 52.7779 5.74554C53.741 6.38906 54.4916 7.30372 54.9349 8.37386C55.3781 9.444 55.4941 10.6216 55.2681 11.7576C55.0422 12.8937 54.4844 13.9372 53.6653 14.7562C52.8463 15.5753 51.8028 16.1331 50.6667 16.359C49.5307 16.585 48.3531 16.469 47.283 16.0258C46.2128 15.5825 45.2982 14.8319 44.6546 13.8688C44.0111 12.9057 43.6676 11.7734 43.6676 10.6151C43.6694 9.06234 44.2869 7.57371 45.3849 6.47578C46.4828 5.37784 47.9714 4.76026 49.5242 4.75854V4.75854ZM10.1258 38.3004C8.96746 38.3004 7.83517 37.9569 6.87207 37.3134C5.90897 36.6699 5.15832 35.7552 4.71506 34.6851C4.27179 33.6149 4.15581 32.4374 4.38179 31.3013C4.60776 30.1653 5.16554 29.1218 5.98459 28.3027C6.80364 27.4837 7.84717 26.9259 8.98322 26.6999C10.1193 26.4739 11.2968 26.5899 12.367 27.0332C13.4371 27.4764 14.3518 28.2271 14.9953 29.1902C15.6388 30.1533 15.9823 31.2856 15.9823 32.4439C15.9806 33.9966 15.363 35.4852 14.265 36.5832C13.1671 37.6811 11.6785 38.2987 10.1258 38.3004V38.3004ZM49.5242 60.1292C48.3659 60.1292 47.2336 59.7858 46.2705 59.1422C45.3074 58.4987 44.5567 57.5841 44.1134 56.5139C43.6702 55.4438 43.5542 54.2662 43.7802 53.1302C44.0062 51.9941 44.5639 50.9506 45.383 50.1315C46.202 49.3125 47.2456 48.7547 48.3816 48.5287C49.5177 48.3028 50.6952 48.4187 51.7654 48.862C52.8355 49.3053 53.7502 50.0559 54.3937 51.019C55.0372 51.9821 55.3807 53.1144 55.3807 54.2727C55.379 55.8254 54.7614 57.3141 53.6634 58.412C52.5655 59.5099 51.0769 60.1275 49.5242 60.1292V60.1292Z" fill="#1B279B"/>
</svg>
